<?xml version="1.0" standalone="no"?>
<!DOCTYPE svg PUBLIC "-//W3C//DTD SVG 20010904//EN"
 "http://www.w3.org/TR/2001/REC-SVG-20010904/DTD/svg10.dtd">
<svg version="1.0" xmlns="http://www.w3.org/2000/svg"
 width="500.000000pt" height="500.000000pt" viewBox="0 0 500.000000 500.000000"
 preserveAspectRatio="xMidYMid meet">

<g transform="translate(0.000000,500.000000) scale(0.100000,-0.100000)"
fill="#000000" stroke="none">
<path d="M2494 4138 c-135 -214 -201 -351 -229 -475 -36 -159 -63 -373 -84
-688 -11 -154 -25 -297 -31 -318 -39 -131 -165 -56 -339 203 -247 368 -450
595 -491 554 -5 -5 -20 -48 -32 -94 -18 -69 -22 -112 -22 -230 1 -128 4 -160
32 -270 88 -359 190 -596 380 -881 146 -220 159 -244 258 -485 102 -248 161
-366 254 -506 72 -110 131 -171 186 -194 101 -42 274 17 422 143 141 121 237
286 297 513 44 167 95 273 251 520 171 271 249 450 330 755 68 258 78 445 35
615 -29 114 -37 130 -63 130 -29 -1 -42 -11 -103 -85 -27 -33 -70 -82 -95
-110 -41 -44 -150 -196 -150 -209 0 -6 -94 -157 -143 -231 -49 -73 -142 -172
-179 -191 -55 -29 -94 -13 -117 49 -27 70 -54 424 -61 797 -6 342 -8 383 -29
470 -24 98 -82 237 -128 303 -44 64 -60 55 -149 -85z"/>
</g>
</svg>
